<svg xmlns="http://www.w3.org/2000/svg" viewBox="0 0 64 64">
  <rect width="64" height="64" rx="14" fill="#0B1B2B"/>
  <svg x="18" y="4" width="28" height="56" viewBox="0 0 50 100">
    <defs>
      <linearGradient id="cg" x1="25" y1="5" x2="25" y2="95" gradientUnits="userSpaceOnUse">
        <stop offset="0%"   stop-color="#C9A227"/>
        <stop offset="55%"  stop-color="#A07818"/>
        <stop offset="100%" stop-color="#7F77DD"/>
      </linearGradient>
    </defs>
    <path d="M 22 5 L 22 82"
          stroke="url(#cg)" stroke-width="3.5" stroke-linecap="round" fill="none"/>
    <path d="M 22 6 C 40 2, 46 16, 38 26 C 30 36, 22 34, 22 32"
          stroke="url(#cg)" stroke-width="3.5" stroke-linecap="round" stroke-linejoin="round" fill="none"/>
    <path d="M 22 28 C 24 18, 40 20, 40 36 C 40 52, 22 56, 12 48 C 4 40, 8 26, 22 28"
          stroke="url(#cg)" stroke-width="3.5" stroke-linecap="round" stroke-linejoin="round" fill="none"/>
    <path d="M 22 78 C 34 74, 38 84, 30 90 C 22 96, 8 94, 8 86 C 8 78, 16 73, 22 76"
          stroke="url(#cg)" stroke-width="3.5" stroke-linecap="round" stroke-linejoin="round" fill="none"/>
  </svg>
</svg>
